<?xml version="1.0" encoding="UTF-8"?>
<svg version="1.1" xmlns="http://www.w3.org/2000/svg" width="512" height="512">
<path d="M0 0 C1.52313421 1.43506183 3.04399616 2.87253946 4.5625 4.3125 C6.2896951 5.83557205 8.01888382 7.35638611 9.75 8.875 C14.05949618 12.76896156 17.90957394 16.80098021 21.5625 21.3125 C22.31015625 22.22257812 23.0578125 23.13265625 23.828125 24.0703125 C39.35048543 43.54648171 50.48060504 65.47676146 57.5625 89.3125 C57.86800781 90.29734375 58.17351562 91.2821875 58.48828125 92.296875 C67.97873328 125.97581246 65.43315315 163.38781381 54.5625 196.3125 C54.33191895 197.0245459 54.10133789 197.7365918 53.86376953 198.47021484 C48.57405946 214.53141876 40.42223132 229.60649725 30.5625 243.3125 C29.90121094 244.25867188 29.23992187 245.20484375 28.55859375 246.1796875 C20.33710114 257.59590376 10.60320125 268.55036749 -0.4375 277.3125 C-1.79294922 278.42431641 -1.79294922 278.42431641 -3.17578125 279.55859375 C-27.46149064 299.13620573 -55.865506 311.63261259 -86.4375 317.3125 C-87.63632812 317.539375 -88.83515625 317.76625 -90.0703125 318 C-136.08201887 325.15516816 -184.87737306 313.72902263 -222.60546875 286.44140625 C-223.54003906 285.73886719 -224.47460938 285.03632813 -225.4375 284.3125 C-226.25863281 283.70277344 -227.07976562 283.09304688 -227.92578125 282.46484375 C-238.52907544 274.29110961 -249.15775561 264.870078 -257.4375 254.3125 C-258.07220215 253.52166016 -258.07220215 253.52166016 -258.71972656 252.71484375 C-266.85673303 242.52570516 -273.50932131 231.91732679 -279.4375 220.3125 C-279.77120605 219.6642627 -280.10491211 219.01602539 -280.44873047 218.34814453 C-288.33320962 202.84159848 -293.26646517 186.38059497 -296.4375 169.3125 C-296.664375 168.11367188 -296.89125 166.91484375 -297.125 165.6796875 C-304.28016816 119.66798113 -292.85402263 70.87262694 -265.56640625 33.14453125 C-264.51259766 31.74267578 -264.51259766 31.74267578 -263.4375 30.3125 C-262.52291016 29.08080078 -262.52291016 29.08080078 -261.58984375 27.82421875 C-233.53839041 -8.5652462 -193.48216039 -32.31877536 -148.4375 -40.6875 C-146.63925781 -41.0278125 -146.63925781 -41.0278125 -144.8046875 -41.375 C-93.93772846 -49.28519665 -38.5717613 -34.4862788 0 0 Z " fill="#FAFAFA" transform="translate(373.4375,117.6875)"/>
<path d="M0 0 C1.52313421 1.43506183 3.04399616 2.87253946 4.5625 4.3125 C6.2896951 5.83557205 8.01888382 7.35638611 9.75 8.875 C14.05949618 12.76896156 17.90957394 16.80098021 21.5625 21.3125 C22.31015625 22.22257812 23.0578125 23.13265625 23.828125 24.0703125 C39.35048543 43.54648171 50.48060504 65.47676146 57.5625 89.3125 C57.86800781 90.29734375 58.17351562 91.2821875 58.48828125 92.296875 C67.97873328 125.97581246 65.43315315 163.38781381 54.5625 196.3125 C54.33191895 197.0245459 54.10133789 197.7365918 53.86376953 198.47021484 C48.57405946 214.53141876 40.42223132 229.60649725 30.5625 243.3125 C29.90121094 244.25867188 29.23992187 245.20484375 28.55859375 246.1796875 C20.33710114 257.59590376 10.60320125 268.55036749 -0.4375 277.3125 C-1.79294922 278.42431641 -1.79294922 278.42431641 -3.17578125 279.55859375 C-27.46149064 299.13620573 -55.865506 311.63261259 -86.4375 317.3125 C-87.63632812 317.539375 -88.83515625 317.76625 -90.0703125 318 C-136.08201887 325.15516816 -184.87737306 313.72902263 -222.60546875 286.44140625 C-223.54003906 285.73886719 -224.47460938 285.03632813 -225.4375 284.3125 C-226.25863281 283.70277344 -227.07976562 283.09304688 -227.92578125 282.46484375 C-238.52907544 274.29110961 -249.15775561 264.870078 -257.4375 254.3125 C-258.07220215 253.52166016 -258.07220215 253.52166016 -258.71972656 252.71484375 C-266.85673303 242.52570516 -273.50932131 231.91732679 -279.4375 220.3125 C-279.77120605 219.6642627 -280.10491211 219.01602539 -280.44873047 218.34814453 C-288.33320962 202.84159848 -293.26646517 186.38059497 -296.4375 169.3125 C-296.664375 168.11367188 -296.89125 166.91484375 -297.125 165.6796875 C-304.28016816 119.66798113 -292.85402263 70.87262694 -265.56640625 33.14453125 C-264.51259766 31.74267578 -264.51259766 31.74267578 -263.4375 30.3125 C-262.52291016 29.08080078 -262.52291016 29.08080078 -261.58984375 27.82421875 C-233.53839041 -8.5652462 -193.48216039 -32.31877536 -148.4375 -40.6875 C-146.63925781 -41.0278125 -146.63925781 -41.0278125 -144.8046875 -41.375 C-93.93772846 -49.28519665 -38.5717613 -34.4862788 0 0 Z M-213.4375 10.3125 C-214.24316406 10.89128906 -215.04882812 11.47007812 -215.87890625 12.06640625 C-247.35757119 35.87514268 -268.72187352 72.5753433 -275.4375 111.3125 C-275.74494141 113.04306641 -275.74494141 113.04306641 -276.05859375 114.80859375 C-277.70022009 125.32632388 -277.7054346 135.69502401 -277.4375 146.3125 C-277.41945313 147.49328125 -277.40140625 148.6740625 -277.3828125 149.890625 C-276.13097436 180.37656555 -263.46727965 210.06555495 -245.4375 234.3125 C-244.86128906 235.11300781 -244.28507812 235.91351563 -243.69140625 236.73828125 C-219.79577539 268.40398361 -183.22276704 289.29863734 -144.4375 296.3125 C-142.96216797 296.61994141 -142.96216797 296.61994141 -141.45703125 296.93359375 C-103.41914513 304.06877291 -61.20063335 293.26707197 -29.33618164 272.00708008 C5.33069832 248.20279718 30.15734108 213.62159808 39.25 172.25 C47.1429768 128.86117894 40.13184184 85.26169582 15.28320312 48.41552734 C9.94301259 40.92156968 3.88071701 33.99236579 -2.4375 27.3125 C-3.24445313 26.44109375 -4.05140625 25.5696875 -4.8828125 24.671875 C-34.08086063 -5.83354842 -75.71063507 -20.84649821 -117.37207031 -22.02587891 C-152.26417689 -22.49003428 -185.4992119 -10.14681265 -213.4375 10.3125 Z " fill="#010101" transform="translate(373.4375,117.6875)"/>
<path d="M0 0 C14.94112579 5.29423958 26.8917398 14.96407965 34.03515625 29.1640625 C37.46201002 37.45784866 38.18375809 45.3761863 38.17559814 54.27130127 C38.17856927 55.2861767 38.18154039 56.30105213 38.18460155 57.34668136 C38.19326989 60.74577772 38.19479522 64.14483878 38.19628906 67.54394531 C38.20091852 69.98177668 38.20594335 72.41960733 38.21133423 74.85743713 C38.22444712 81.47944208 38.23093789 88.10143972 38.23534489 94.72345448 C38.23811161 98.86139109 38.24234972 102.99932539 38.24684906 107.13726044 C38.25903765 118.60331704 38.26933812 130.06937179 38.27272415 141.53543472 C38.2730535 142.63524801 38.2730535 142.63524801 38.2733895 143.75727974 C38.27371692 144.85965802 38.27371692 144.85965802 38.27405095 145.98430657 C38.27449441 147.47342444 38.27494097 148.9625423 38.27539062 150.45166016 C38.27561205 151.19030712 38.27583348 151.92895409 38.27606162 152.68998429 C38.28000871 164.65564908 38.29746183 176.62125293 38.32075015 188.58689418 C38.3444895 200.88392979 38.35692716 213.18093484 38.35809207 225.47799373 C38.35900732 232.37748585 38.36472186 239.27689853 38.38291168 246.17636871 C38.39996447 252.66720563 38.40154601 259.15793216 38.39277267 265.64878654 C38.39200252 268.02795503 38.39634212 270.40713162 38.40623093 272.78627968 C38.41896188 276.04066147 38.41306699 279.29451068 38.40264893 282.54888916 C38.41070533 283.48451415 38.41876173 284.42013915 38.42706227 285.38411641 C38.34945836 295.78936074 35.87062144 303.51469821 28.55078125 311.0234375 C22.1114542 316.50286486 15.25442339 317.87371011 6.921875 317.54296875 C-0.88978553 316.51762224 -8.02416852 312.31081263 -12.96484375 306.1640625 C-17.04570073 299.2100266 -17.53859487 292.96394511 -17.47950745 285.02996826 C-17.48645297 283.83340898 -17.4933985 282.63684969 -17.5005545 281.40403104 C-17.5156219 278.10444215 -17.51290824 274.80576105 -17.50240147 271.50621414 C-17.49538459 267.93974205 -17.51142578 264.37336041 -17.5243988 260.80691528 C-17.54599927 253.83002367 -17.54592267 246.85329541 -17.53777326 239.87638137 C-17.53146637 234.20680954 -17.53261657 228.53728526 -17.53904533 222.86771393 C-17.53994699 222.05997147 -17.54084864 221.25222901 -17.54177762 220.42000951 C-17.54362885 218.77900796 -17.54549141 217.13800642 -17.54736518 215.4970049 C-17.56392851 200.12365828 -17.55523547 184.75040355 -17.5383796 169.37706247 C-17.52366938 155.30977064 -17.53833217 141.24269214 -17.56714977 127.17542776 C-17.59653048 112.72562682 -17.60752086 98.27592438 -17.59796757 83.82609487 C-17.59694502 82.19244593 -17.59595041 80.55879698 -17.59498405 78.92514801 C-17.59450766 78.12138626 -17.59403127 77.31762451 -17.59354045 76.48950635 C-17.59137535 70.82457789 -17.6011849 65.15974267 -17.61575508 59.4948349 C-17.63325554 52.59458604 -17.63319349 45.69460962 -17.61040343 38.79437158 C-17.5992427 35.2736094 -17.59613957 31.75332762 -17.61470413 28.23258591 C-17.63455867 24.41821199 -17.61576676 20.60459307 -17.59303284 16.79022217 C-17.60486857 15.67476855 -17.61670429 14.55931493 -17.62889868 13.41005969 C-17.5377585 5.91492539 -17.5377585 5.91492539 -14.55058193 1.99992752 C-9.54283445 -1.55555559 -5.81035675 -1.6382297 0 0 Z " fill="#010202" transform="translate(16.96484375,97.8359375)"/>
<path d="M0 0 C3.871838 3.871838 4.91454269 6.76967371 5.12025452 12.13848877 C5.1169236 13.99047882 5.1169236 13.99047882 5.11352539 15.87988281 C5.11367142 16.56321686 5.11381744 17.2465509 5.1139679 17.95059204 C5.11327315 20.20146904 5.10550132 22.45226252 5.09765625 24.703125 C5.09579051 26.2668249 5.09436734 27.83052538 5.09336853 29.39422607 C5.08955562 33.50416689 5.0797358 37.61407221 5.06866455 41.72399902 C5.05842407 45.92016113 5.05386526 50.11632899 5.04882812 54.3125 C5.03811242 62.54168293 5.02105073 70.77083705 5 79 C6.98 79 8.96 79 11 79 C10.99111755 78.08402542 10.98223511 77.16805084 10.9730835 76.22431946 C10.89289931 67.5875519 10.83201608 58.95090954 10.79275131 50.31385517 C10.7718861 45.87354451 10.74358823 41.4335417 10.69824219 36.9934082 C10.65474594 32.70752631 10.63085487 28.42194032 10.62049103 24.13585472 C10.6131064 22.50157196 10.59868575 20.86730519 10.57707977 19.23314857 C10.54799441 16.94194306 10.54404597 14.65195645 10.54589844 12.3605957 C10.53701599 11.05709671 10.52813354 9.75359772 10.51898193 8.41059875 C11.08327227 4.40956831 12.1384579 2.80251954 15 0 C19.27587302 -1.93624439 21.22507711 -2.23247687 25.75 -0.875 C29.34392696 1.1984194 31.25263723 2.74562135 32.56321716 6.69891357 C33.14938015 9.78697376 33.11917954 12.73617348 33.11352539 15.87988281 C33.11367142 16.56321686 33.11381744 17.2465509 33.1139679 17.95059204 C33.11327315 20.20146904 33.10550132 22.45226252 33.09765625 24.703125 C33.09579051 26.2668249 33.09436734 27.83052538 33.09336853 29.39422607 C33.08955562 33.50416689 33.0797358 37.61407221 33.06866455 41.72399902 C33.05842407 45.92016113 33.05386526 50.11632899 33.04882812 54.3125 C33.03811242 62.54168293 33.02105073 70.77083705 33 79 C34.98 79 36.96 79 39 79 C38.99111755 78.08402542 38.98223511 77.16805084 38.9730835 76.22431946 C38.89289931 67.5875519 38.83201608 58.95090954 38.79275131 50.31385517 C38.7718861 45.87354451 38.74358823 41.4335417 38.69824219 36.9934082 C38.65474594 32.70752631 38.63085487 28.42194032 38.62049103 24.13585472 C38.6131064 22.50157196 38.59868575 20.86730519 38.57707977 19.23314857 C38.54799441 16.94194306 38.54404597 14.65195645 38.54589844 12.3605957 C38.53701599 11.05709671 38.52813354 9.75359772 38.51898193 8.41059875 C39.08327227 4.40956831 40.1384579 2.80251954 43 0 C47.27587302 -1.93624439 49.22507711 -2.23247687 53.75 -0.875 C56.9988238 0.99932142 58.21013751 1.80205671 60 5 C60.29502348 7.63631881 60.42050323 10.0357282 60.40405273 12.67089844 C60.41091599 13.43891785 60.41777924 14.20693726 60.42485046 14.99822998 C60.44313993 17.53546687 60.43927649 20.07208635 60.43359375 22.609375 C60.43815606 24.37811483 60.44346178 26.14685289 60.44947815 27.91558838 C60.4584146 31.62446283 60.45598188 35.33312205 60.44604492 39.04199219 C60.43458194 43.78097137 60.45472266 48.51920244 60.48396206 53.25808334 C60.50236882 56.91282836 60.50202224 60.56739583 60.49632454 64.2221756 C60.49617172 65.96837663 60.50218304 67.71458999 60.51461601 69.46074677 C60.52960114 71.91147227 60.51879353 74.36083857 60.50170898 76.81152344 C60.51137695 77.52453613 60.52104492 78.23754883 60.53100586 78.97216797 C60.44089209 85.18812643 58.32300393 90.30801781 54.25390625 95.0234375 C53.69574219 95.46945313 53.13757813 95.91546875 52.5625 96.375 C51.72912109 97.06722656 51.72912109 97.06722656 50.87890625 97.7734375 C44.54642817 101.90732132 41.11655288 101 33 101 C33 116.18 33 131.36 33 147 C35.31 147 37.62 147 40 147 C44.21629914 148.62165352 46.64003069 150.15842303 49 154 C49.38590336 156.34837341 49.38590336 156.34837341 49.40113831 158.99389648 C49.41393326 160.00016586 49.42672821 161.00643524 49.43991089 162.04319763 C49.43855133 163.14140335 49.43719177 164.23960907 49.43579102 165.37109375 C49.44586685 166.53258438 49.45594269 167.69407501 49.46632385 168.89076233 C49.49487275 172.7397723 49.50068513 176.58839065 49.50390625 180.4375 C49.51110933 182.43876679 49.51831768 184.44003365 49.5262875 186.44129753 C49.5507144 192.74067906 49.55804153 199.03993202 49.5559082 205.33935547 C49.5541115 211.81286753 49.58565335 218.285625 49.63313919 224.75894642 C49.67255336 230.33287701 49.68845184 235.90656319 49.68654197 241.48063183 C49.68578167 244.80232639 49.69688347 248.12320703 49.72607613 251.4447937 C49.75567063 255.16173577 49.74676756 258.87677328 49.72875977 262.59375 C49.75404755 264.21676781 49.75404755 264.21676781 49.77984619 265.87257385 C49.67390995 274.53395348 47.23376804 282.76665768 40.96085453 289.03894043 C39.04997784 290.57254989 37.13619518 291.80389857 35 293 C33.9275 293.61875 32.855 294.2375 31.75 294.875 C23.60003305 297.31999008 15.88679918 296.75848013 8.1796875 293.17578125 C0.34399894 288.94900301 -2.80941519 283.22848747 -6 275 C-6.76278384 270.87701003 -6.8044435 266.90194284 -6.74462891 262.71728516 C-6.7555809 260.97347061 -6.7555809 260.97347061 -6.76675415 259.19442749 C-6.78282904 255.39202527 -6.75587242 251.59136406 -6.7265625 247.7890625 C-6.72552405 245.1301334 -6.72646016 242.47126818 -6.72958374 239.81234741 C-6.73134112 234.25961895 -6.70935719 228.70738287 -6.67236328 223.15478516 C-6.62991465 216.7469926 -6.62303948 210.33991701 -6.6354872 203.9320122 C-6.64689168 197.74252647 -6.63557132 191.55329155 -6.61314011 185.36384201 C-6.60544794 182.73960761 -6.60313478 180.11535169 -6.6063118 177.49110794 C-6.60705353 173.82910322 -6.58180763 170.16818855 -6.54931641 166.50634766 C-6.55427124 165.42468323 -6.55922607 164.3430188 -6.56433105 163.22857666 C-6.4788787 157.1942554 -6.07090644 153.57438022 -2 149 C2.49862059 146.25084297 5.25132116 147 11 147 C11 131.82 11 116.64 11 101 C7.04 101 3.08 101 -1 101 C-7.95017487 98.51779469 -12.73702466 94.5493079 -16.0585022 87.87207031 C-17.2376827 84.27494104 -17.29522472 80.91099236 -17.29052734 77.16796875 C-17.29724457 76.39498444 -17.30396179 75.62200012 -17.31088257 74.82559204 C-17.32982557 72.27949537 -17.33378445 69.73366267 -17.3359375 67.1875 C-17.3423665 65.41300346 -17.34909494 63.63850799 -17.35610962 61.86401367 C-17.36807203 58.14857525 -17.37179136 54.43322975 -17.37060547 50.71777344 C-17.37040199 45.95950688 -17.39773805 41.20183566 -17.43214989 36.44371033 C-17.45439414 32.78053046 -17.45844382 29.11749464 -17.45738602 25.45425415 C-17.4597444 23.6999811 -17.46858132 21.94570423 -17.48405075 20.1914978 C-17.50366723 17.73791793 -17.49789128 15.28563236 -17.48583984 12.83203125 C-17.49707886 12.10980377 -17.50831787 11.38757629 -17.51989746 10.64346313 C-17.45979071 5.82301706 -16.4393985 3.36713791 -13 0 C-8.13567071 -2.48621275 -4.98023956 -2.12121314 0 0 Z " fill="#000000" transform="translate(452,119)"/>
<path d="M0 0 C0.99257813 0.00515625 1.98515625 0.0103125 3.0078125 0.015625 C25.60527851 0.85926373 50.78130029 9.61887428 69 23 C69.99515625 23.70253906 70.9903125 24.40507812 72.015625 25.12890625 C85.92186114 35.18679573 97.8349831 47.48838182 107 62 C107.36174316 62.57073242 107.72348633 63.14146484 108.09619141 63.72949219 C119.41687883 81.88560146 127.06741583 103.34933936 127.203125 124.875 C127.20882507 125.60259521 127.21452515 126.33019043 127.22039795 127.07983398 C127.22978015 128.61261576 127.23635467 130.14541708 127.24023438 131.67822266 C127.24986058 133.96685264 127.2809152 136.2545516 127.3125 138.54296875 C127.41089881 152.01388399 125.75876624 164.87132662 120.8125 177.5 C120.35967651 178.68372192 120.35967651 178.68372192 119.89770508 179.89135742 C112.8613875 197.86544217 103.36591719 213.03076016 90 227 C89.278125 227.79664063 88.55625 228.59328125 87.8125 229.4140625 C76.38986061 241.56991186 62.16083237 250.29128226 47 257 C45.82050781 257.52722656 44.64101563 258.05445313 43.42578125 258.59765625 C31.26136171 263.66969645 31.26136171 263.66969645 25 262 C22.24430553 259.81840855 20.56411253 258.12822506 19 255 C18.70983251 251.7356157 18.82909009 249.4486385 20 246.375 C23.53163655 242.1811816 28.32493951 240.63624806 33.33203125 238.734375 C59.56721149 228.73478798 81.48267349 210.51608865 94 185 C96.20508281 180.07601592 98.13115747 175.05954928 100 170 C100.3196875 169.1646875 100.639375 168.329375 100.96875 167.46875 C104.78557778 156.93430533 105.3731601 145.97438539 105.37060547 134.87451172 C105.37496738 132.76577151 105.41140263 130.65915259 105.44921875 128.55078125 C105.65232047 103.77345233 95.25977152 79.50140992 79 61 C78.32582031 60.18273437 77.65164063 59.36546875 76.95703125 58.5234375 C58.43105389 36.72420002 30.16026172 24.52765136 2 22 C-27.14645883 20.61470619 -54.17438593 28.58913147 -77 47 C-77.77851318 47.62382568 -77.77851318 47.62382568 -78.57275391 48.26025391 C-100.03459021 65.80385955 -111.75750997 90.25328334 -117 117 C-117.17345947 117.79253174 -117.34691895 118.58506348 -117.52563477 119.40161133 C-122.33787622 145.76120259 -113.492126 175.09285309 -99 197 C-96.5044206 200.50626511 -93.83960906 203.76891086 -91 207 C-89.98873047 208.22589844 -89.98873047 208.22589844 -88.95703125 209.4765625 C-76.1522546 224.5437496 -59.23243185 233.72305958 -41.01953125 240.76782227 C-34.48886264 243.39600336 -34.48886264 243.39600336 -31.91015625 246.58203125 C-30.7583187 249.64206319 -30.59395361 251.7516289 -31 255 C-32.24563335 257.74039337 -33.31135445 259.4643868 -35.6875 261.3125 C-41.89789879 263.15883478 -47.63084306 261.8916608 -53.5 259.5625 C-54.52323364 259.16587158 -54.52323364 259.16587158 -55.56713867 258.76123047 C-71.96216057 252.15666308 -86.20606722 242.10346657 -99 230 C-100.21816406 228.87851562 -100.21816406 228.87851562 -101.4609375 227.734375 C-120.81887979 209.29242367 -132.6008955 185.04922153 -137.609375 159.00976562 C-137.94402743 157.28797886 -138.31241987 155.57280921 -138.6875 153.859375 C-145.05200917 122.21362106 -135.18497029 86.68516038 -118 60 C-114.88652315 55.48677682 -111.49132849 51.22450747 -108 47 C-107.3709375 46.22914063 -106.741875 45.45828125 -106.09375 44.6640625 C-102.1177025 39.94702432 -97.77245733 35.89964215 -93 32 C-92.08734375 31.23816406 -91.1746875 30.47632813 -90.234375 29.69140625 C-64.21057985 8.73505865 -33.20191327 -0.69026847 0 0 Z " fill="#030303" transform="translate(262,122)"/>
<path d="M0 0 C26.84814759 9.33923392 48.32798182 26.11629188 60.92333984 52.06494141 C63.51161377 57.70030662 64.95941908 62.12294935 63.86083984 68.31494141 C62.06690317 71.18524009 60.87820708 72.80625779 57.86083984 74.31494141 C50.72777533 75.01655431 50.72777533 75.01655431 47.34130859 72.27587891 C44.50199548 68.88658861 42.80577959 65.5597021 40.98583984 61.56494141 C37.92340189 55.14583841 34.53459913 49.71132682 29.86083984 44.31494141 C29.11833984 43.30431641 28.37583984 42.29369141 27.61083984 41.25244141 C17.09817432 28.98203117 -1.89627542 20.26470823 -17.81494141 19.02978516 C-20.21167794 18.89289989 -22.61050592 18.78671354 -25.01025391 18.72119141 C-29.2552308 18.17003336 -31.85755165 16.50816311 -34.95166016 13.62744141 C-36.69562805 10.23129339 -36.81997522 7.0045198 -36.13916016 3.31494141 C-29.51713956 -7.05955753 -10.29569578 -3.29716073 0 0 Z " fill="#030303" transform="translate(282.13916015625,163.68505859375)"/>
<path d="M0 0 C6.75 4.5 6.75 4.5 8.8125 8.625 C9.21082031 9.40101563 9.60914063 10.17703125 10.01953125 10.9765625 C10.50486328 11.97816406 10.50486328 11.97816406 11 13 C11.33 13.66 11.66 14.32 12 15 C12.09300842 16.68521815 12.121919 18.37413819 12.12025452 20.06192017 C12.12162918 21.13326706 12.12300385 22.20461395 12.12442017 23.3084259 C12.12082489 24.48877914 12.11722961 25.66913239 12.11352539 26.88525391 C12.11367142 28.12424942 12.11381744 29.36324493 12.1139679 30.63978577 C12.11338953 34.04247502 12.10836527 37.44510403 12.10139394 40.84778261 C12.09515368 44.40188705 12.09455607 47.95599225 12.09336853 51.51010132 C12.0902572 58.24261787 12.08204648 64.97511824 12.07201904 71.70762765 C12.06085176 79.3713712 12.0553459 87.03511552 12.05032361 94.69886518 C12.03986371 110.46591976 12.02206727 126.23295716 12 142 C8.04 142 4.08 142 0 142 C0 95.14 0 48.28 0 0 Z " fill="#F8F9F9" transform="translate(21,125)"/>
<path d="M0 0 C4.29 0 8.58 0 13 0 C13.06945558 13.09964758 13.12278876 26.19925148 13.15543652 39.29904556 C13.17110437 45.38155869 13.19236331 51.46394601 13.22631836 57.54638672 C13.25887152 63.41430654 13.27684457 69.2821052 13.28463173 75.15010834 C13.29018248 77.39085549 13.3010215 79.63159588 13.31719017 81.87229156 C13.33891039 85.00647912 13.34196915 88.14016357 13.34057617 91.27441406 C13.35675491 92.66947929 13.35675491 92.66947929 13.3732605 94.09272766 C13.34323048 100.32104192 13.34323048 100.32104192 11.69746399 103.57659912 C10 105 10 105 6.5 105.5 C3 105 3 105 1.30253601 103.57659912 C-0.72382649 99.56816957 -0.39193757 95.70321933 -0.34057617 91.27441406 C-0.34101425 90.28871933 -0.34145233 89.3030246 -0.34190369 88.28746033 C-0.33981397 85.02998028 -0.3164738 81.77301513 -0.29296875 78.515625 C-0.28737346 76.25689983 -0.28310305 73.99817103 -0.28010559 71.73944092 C-0.2686516 65.79471788 -0.23917941 59.85021476 -0.20599365 53.90557861 C-0.17530486 47.83942642 -0.16160278 41.7732387 -0.14648438 35.70703125 C-0.11431045 23.80459088 -0.0631072 11.90231373 0 0 Z " fill="#07BDF5" transform="translate(467,288)"/>
<path d="M0 0 C3.96 0 7.92 0 12 0 C12.09256335 13.37766058 12.16369564 26.75524534 12.20724869 40.13316059 C12.22814896 46.34466654 12.25651151 52.55595387 12.30175781 58.76733398 C12.34512794 64.75845179 12.36911871 70.74935893 12.37950897 76.74062157 C12.3869162 79.02965806 12.40138021 81.31868265 12.42292023 83.60762978 C12.45183621 86.80679119 12.45596088 90.00507525 12.45410156 93.2043457 C12.47567322 94.63285606 12.47567322 94.63285606 12.49768066 96.09022522 C12.45732514 102.48103256 12.45732514 102.48103256 10.1317749 105.12004089 C7.29358416 106.29159601 5.87062844 106.030482 3 105 C1.00987361 103.4246482 0.10564547 102.56153933 -0.36914349 100.03788471 C-0.36637811 99.28846702 -0.36361273 98.53904932 -0.36076355 97.766922 C-0.36488754 96.90455429 -0.36901154 96.04218658 -0.3732605 95.15368652 C-0.36247467 94.21069702 -0.35168884 93.26770752 -0.34057617 92.29614258 C-0.34101425 91.3008403 -0.34145233 90.30553802 -0.34190369 89.28007507 C-0.33981084 85.98469542 -0.31645601 82.68982222 -0.29296875 79.39453125 C-0.28737457 77.11195656 -0.28310363 74.82937828 -0.28010559 72.54679871 C-0.26864285 66.53465863 -0.23916319 60.52273545 -0.20599365 54.51068115 C-0.17532366 48.37759333 -0.16160681 42.24447051 -0.14648438 36.11132812 C-0.11429502 24.07412337 -0.06308127 12.03707971 0 0 Z " fill="#07C4FE" transform="translate(21,288)"/>
<path d="M0 0 C2.87029869 1.79393668 4.49131638 2.98263276 6 6 C6.5811138 13.08958838 6.5811138 13.08958838 4.125 16.9375 C0.8698054 20.09695358 -1.42413238 20.33421243 -5.9609375 20.29296875 C-9.13134567 19.83745033 -10.8192402 18.24684343 -13 16 C-14.74601232 12.50797535 -14.55838804 8.81017721 -14 5 C-10.48991881 -0.54819285 -6.12196123 -1.23104655 0 0 Z " fill="#050505" transform="translate(345,246)"/>
<path d="M0 0 C3.34139976 0.02999461 4.22721051 0.29795352 7.1875 2.1875 C10.00097261 5.08622935 10.21221778 5.93467779 10.625 10.0625 C10.54288939 13.8122179 9.69575555 16.43514064 7.0078125 19.23828125 C3.3132237 21.49608551 -0.63735318 21.18896572 -4.75 20.3125 C-7.875 18.375 -7.875 18.375 -9.75 15.3125 C-10.43469221 12.15721004 -10.48591379 9.46152647 -9.75 6.3125 C-7.3125 3.3125 -7.3125 3.3125 -4.75 1.3125 C-3.75 0.3125 -3.75 0.3125 0 0 Z " fill="#040404" transform="translate(255.75,368.6875)"/>
</svg>
